Coordinates
version=1
nRows=9
nColumns=36
inDegrees=yes

Units are S.I. units (second, meters, Newtons, ...)
If the header above contains a line with 'inDegrees', this indicates whether rotational values are in degrees (yes) or radians (no).

endheader
time	pelvis_tilt	pelvis_list	pelvis_rotation	pelvis_tx	pelvis_ty	pelvis_tz	hip_flexion_r	hip_adduction_r	hip_rotation_r	knee_angle_r	knee_angle_r_beta	ankle_angle_r	subtalar_angle_r	mtp_angle_r	hip_flexion_l	hip_adduction_l	hip_rotation_l	knee_angle_l	knee_angle_l_beta	ankle_angle_l	subtalar_angle_l	mtp_angle_l	lumbar_extension	lumbar_bending	lumbar_rotation	arm_flex_r	arm_add_r	arm_rot_r	elbow_flex_r	pro_sup_r	arm_flex_l	arm_add_l	arm_rot_l	elbow_flex_l	pro_sup_l
      7.45000000	      3.69327796	      2.49168663	     -3.92834253	     -0.01859566	      1.04695828	      0.18478394	      1.59071510	      3.04569335	    -13.71129575	      6.35414029	      0.11090067	      2.69806405	     -4.93110253	     -7.49999987	     33.06774743	      3.42819547	    -12.05222889	      0.24485119	      0.00427346	     -5.93544759	     12.96168423	     -7.49999987	     -9.42805026	     -0.50619266	      5.72059776	     31.49557976	     12.36582634	     66.34398981	    122.01666188	     92.91936710	     45.76413094	      9.94981768	     71.36739922	    117.55849720	     66.53697981
      7.46666670	      3.87807549	      2.63687154	     -3.69486570	     -0.01710519	      1.04519310	      0.18273275	      1.71177028	      2.77599097	    -13.21243534	      7.07606478	      0.12350063	      3.07083685	     -6.54663239	     -7.49999987	     32.49578376	      3.81880297	    -11.19290631	      0.24986896	      0.00436104	     -6.08971780	     11.63109213	     -7.49999987	     -9.72133667	     -0.64343814	      5.46645687	     31.60825033	     12.33102377	     65.83415702	    121.40423647	     90.42314690	     45.62569455	      9.93732527	     71.34034720	    117.33481005	     66.32112327
      7.48333330	      3.95576592	      2.75346603	     -3.40204253	     -0.01843429	      1.04316790	      0.18300807	      2.32748537	      2.56343612	    -12.35910069	      8.28408101	      0.14458449	      3.09978932	     -8.31367291	     -7.49999987	     32.14536600	      4.15671714	    -10.80914448	      0.26790047	      0.00467575	     -6.36780271	     11.34486061	     -7.49999987	     -9.97325024	     -0.81049611	      5.24108331	     31.37070873	     12.21933248	     65.48667975	    121.20778091	     91.83155423	     45.45500412	      9.93101499	     71.30205257	    117.16508486	     67.14519019
      7.50000000	      3.79674007	      2.48716201	     -2.79864911	     -0.02323661	      1.04439352	      0.18361646	      2.99104534	      2.89346741	    -11.65468637	      9.26561642	      0.16171551	      3.20650764	    -10.09186691	     -7.49999987	     32.27776342	      4.21320017	    -10.63786674	      0.22898848	      0.00399660	     -6.38135280	     11.42029343	     -7.49999987	    -10.09525739	     -0.47470896	      4.62870944	     31.08905347	     12.24473661	     66.19862030	    121.64693854	     92.24337571	     45.22926167	      9.81680971	     71.34192426	    117.13517403	     67.30362201
      7.51666670	      3.88980845	      2.16634399	     -2.12623840	     -0.01649773	      1.03475984	      0.18057923	      3.44147117	      3.19655104	    -11.07709102	     10.64075636	      0.18571623	      2.78170293	    -12.62997002	     -7.49999987	     31.92430468	      4.32120092	     -9.89475069	      0.21602813	      0.00377040	     -6.20855720	     11.61859779	     -7.49999987	    -10.44041937	     -0.06230836	      4.01251644	     30.88695633	     12.17100427	     66.23366967	    121.39272990	     92.72677837	     45.07093217	      9.81397107	     71.14584919	    116.97179512	     67.64720085
      7.53333330	      4.21414518	      1.99242979	     -1.75769735	     -0.01684328	      1.02990355	      0.18004364	      3.85421889	      3.27724724	    -10.78017831	     12.45307542	      0.21734717	      3.27552574	    -14.59647053	     -7.49999987	     31.57442978	      4.48907167	     -9.27225402	      0.23156724	      0.00404161	     -5.89439802	     11.26490429	     -7.49999987	    -11.24520181	      0.15220020	      3.59471226	     30.85097986	     12.02671322	     66.07696242	    121.13479671	     94.25500703	     45.02225604	      9.70379540	     70.86060708	    116.67729531	     68.83788718
      7.55000000	      4.21700190	      1.66076487	     -1.23583402	     -0.01853143	      1.02449249	      0.17925693	      4.56642930	      3.61344459	    -10.42735404	     13.98088959	      0.24401256	      3.04157044	    -17.39976219	     -7.49999987	     31.64589456	      4.52978262	     -8.38596439	      0.22413560	      0.00391190	     -5.33398791	     11.40459199	     -7.49999987	    -11.53412828	      0.58407869	      3.06819202	     30.96001519	     11.96838022	     65.99284081	    120.84267450	     91.27153238	     44.80679629	      9.53026147	     70.60788061	    116.69162175	     68.26428862
      7.56666670	      4.19352090	      1.31710203	     -0.74859077	     -0.02231826	      1.01877145	      0.17763720	      5.63153638	      3.95860976	     -9.88893430	     15.87840030	      0.27713037	      2.83008975	    -20.61090149	     -7.49999987	     31.89602263	      4.56855955	     -7.42199101	      0.22813098	      0.00398164	     -5.15231732	     11.44957699	     -7.49999987	    -12.09773268	      1.19262881	      2.86999399	     31.02011383	     11.92139339	     65.83240445	    120.09077823	     93.97766390	     44.85132516	      9.66883798	     70.62119657	    116.54592591	     69.56050191
      7.58333330	      4.52060398	      1.12273047	     -0.14805821	     -0.02152500	      1.01350003	      0.17636004	      6.55188494	      4.13578342	     -9.14843110	     18.56077236	      0.32394659	      2.82179874	    -23.83328860	     -7.49999987	     31.65788959	      4.77615204	     -6.42189230	      0.24239899	      0.00423066	     -5.00974482	     11.19408839	     -7.49999987	    -12.95441343	      1.56431995	      2.47050517	     30.87034416	     11.87641587	     66.16075533	    119.77039011	     90.98471565	     44.93523151	      9.82388785	     70.95232233	    116.70548964	     68.83461478
